<?xml version="1.0"?>
<svg version="1.1" xmlns="http://www.w3.org/2000/svg" width="450px" height="250px" style=""><path fill="#" d="M56.24,122.66l28.62,0l0-3.72l-32.34,0l0,0.72l0,41.34l3.72,0l0-18.72l15.18,0l0-3.9l-15.18,0l0-15.72z M108.0104,119q-6.78,0-11.64,4.86q-4.92,4.92-4.92,11.7l0,9.06q0,6.66,4.92,11.58t11.64,4.92q6.78,0,11.7-4.92q4.86-4.86,4.86-11.58l0-9.06q0-6.84-4.86-11.7t-11.7-4.86z M120.8504,135.56l0,9.06q0,5.46-3.84,9.18q-3.78,3.6-9,3.6t-8.94-3.6q-3.84-3.72-3.84-9.18l0-9.06q0-5.04,3.84-9q3.84-3.84,8.94-3.84q5.04,0,9,3.84q3.84,3.96,3.84,9z M164.1608,119l-32.52,0l0,3.66l14.76,0l0,38.46l3.72,0l0-38.46l14.04,0l0-3.66z M187.8512,119q-6.78,0-11.64,4.86q-4.92,4.92-4.92,11.7l0,9.06q0,6.66,4.92,11.58t11.64,4.92q6.78,0,11.7-4.92q4.86-4.86,4.86-11.58l0-9.06q0-6.84-4.86-11.7t-11.7-4.86z M200.6912,135.56l0,9.06q0,5.46-3.84,9.18q-3.78,3.6-9,3.6t-8.94-3.6q-3.84-3.72-3.84-9.18l0-9.06q0-5.04,3.84-9q3.84-3.84,8.94-3.84q5.04,0,9,3.84q3.84,3.96,3.84,9z M233.2616,122.6l11.58,0l0-3.78l-11.58,0q-8.64,0-14.64,6.12q-6.06,6.18-6.06,15.42q0,8.58,6.06,14.64t14.64,6.06l7.68,0l3.9,0l0-3.84l0-19.2l-3.9,0l-9.18,0l0,3.84l9.18,0l0,15.36l-7.68,0q-6.84,0-11.82-4.98t-4.98-11.88q0-7.5,4.98-12.66q4.92-5.1,11.82-5.1z M271.952,139.94l4.5,0q4.56,0,7.56-3t3-7.56q0-4.02-3-7.2q-3.18-3.3-7.56-3.3l-18.78,0l-3.72,0l0,42.12l3.72,0l0-21.06l9.78,0l12.78,21.06l4.5,0z M257.672,136.22l0-13.56l18.78,0q2.76,0,4.86,1.98q1.98,1.98,1.98,4.74q0,2.88-1.98,4.86q-2.1,1.98-4.86,1.98l-18.78,0z M311.4824,118.76q-6.72,0-11.28,4.86q-4.5,4.8-4.5,11.7l0,25.68l3.78,0l0-18.84l24.12,0l0,18.84l3.78,0l0-25.68q0-6.9-4.5-11.7q-4.68-4.86-11.4-4.86z M323.6024,138.44l-24.12,0l0-3.12q0-5.16,3.48-8.94q3.54-3.84,8.52-3.84t8.64,3.84q3.48,3.78,3.48,8.94l0,3.12z M340.5128,122.66l28.62,0l0-3.72l-32.34,0l0,0.72l0,41.34l3.72,0l0-18.72l15.18,0l0-3.9l-15.18,0l0-15.72z M376.3232,161.06l3.78,0l0-42.18l-3.78,0l0,42.18z M405.1736,118.76q-6.72,0-11.28,4.86q-4.5,4.8-4.5,11.7l0,25.68l3.78,0l0-18.84l24.12,0l0,18.84l3.78,0l0-25.68q0-6.9-4.5-11.7q-4.68-4.86-11.4-4.86z M417.2936,138.44l-24.12,0l0-3.12q0-5.16,3.48-8.94q3.54-3.84,8.52-3.84t8.64,3.84q3.48,3.78,3.48,8.94l0,3.12z"/><path fill="#" d="M56.24,122.66l28.62,0l0-3.72l-32.34,0l0,0.72l0,41.34l3.72,0l0-18.72l15.18,0l0-3.9l-15.18,0l0-15.72z M108.0104,119q-6.78,0-11.64,4.86q-4.92,4.92-4.92,11.7l0,9.06q0,6.66,4.92,11.58t11.64,4.92q6.78,0,11.7-4.92q4.86-4.86,4.86-11.58l0-9.06q0-6.84-4.86-11.7t-11.7-4.86z M120.8504,135.56l0,9.06q0,5.46-3.84,9.18q-3.78,3.6-9,3.6t-8.94-3.6q-3.84-3.72-3.84-9.18l0-9.06q0-5.04,3.84-9q3.84-3.84,8.94-3.84q5.04,0,9,3.84q3.84,3.96,3.84,9z M164.1608,119l-32.52,0l0,3.66l14.76,0l0,38.46l3.72,0l0-38.46l14.04,0l0-3.66z M187.8512,119q-6.78,0-11.64,4.86q-4.92,4.92-4.92,11.7l0,9.06q0,6.66,4.92,11.58t11.64,4.92q6.78,0,11.7-4.92q4.86-4.86,4.86-11.58l0-9.06q0-6.84-4.86-11.7t-11.7-4.86z M200.6912,135.56l0,9.06q0,5.46-3.84,9.18q-3.78,3.6-9,3.6t-8.94-3.6q-3.84-3.72-3.84-9.18l0-9.06q0-5.04,3.84-9q3.84-3.84,8.94-3.84q5.04,0,9,3.84q3.84,3.96,3.84,9z M233.2616,122.6l11.58,0l0-3.78l-11.58,0q-8.64,0-14.64,6.12q-6.06,6.18-6.06,15.42q0,8.58,6.06,14.64t14.64,6.06l7.68,0l3.9,0l0-3.84l0-19.2l-3.9,0l-9.18,0l0,3.84l9.18,0l0,15.36l-7.68,0q-6.84,0-11.82-4.98t-4.98-11.88q0-7.5,4.98-12.66q4.92-5.1,11.82-5.1z M271.952,139.94l4.5,0q4.56,0,7.56-3t3-7.56q0-4.02-3-7.2q-3.18-3.3-7.56-3.3l-18.78,0l-3.72,0l0,42.12l3.72,0l0-21.06l9.78,0l12.78,21.06l4.5,0z M257.672,136.22l0-13.56l18.78,0q2.76,0,4.86,1.98q1.98,1.98,1.98,4.74q0,2.88-1.98,4.86q-2.1,1.98-4.86,1.98l-18.78,0z M311.4824,118.76q-6.72,0-11.28,4.86q-4.5,4.8-4.5,11.7l0,25.68l3.78,0l0-18.84l24.12,0l0,18.84l3.78,0l0-25.68q0-6.9-4.5-11.7q-4.68-4.86-11.4-4.86z M323.6024,138.44l-24.12,0l0-3.12q0-5.16,3.48-8.94q3.54-3.84,8.52-3.84t8.64,3.84q3.48,3.78,3.48,8.94l0,3.12z M340.5128,122.66l28.62,0l0-3.72l-32.34,0l0,0.72l0,41.34l3.72,0l0-18.72l15.18,0l0-3.9l-15.18,0l0-15.72z M376.3232,161.06l3.78,0l0-42.18l-3.78,0l0,42.18z M405.1736,118.76q-6.72,0-11.28,4.86q-4.5,4.8-4.5,11.7l0,25.68l3.78,0l0-18.84l24.12,0l0,18.84l3.78,0l0-25.68q0-6.9-4.5-11.7q-4.68-4.86-11.4-4.86z M417.2936,138.44l-24.12,0l0-3.12q0-5.16,3.48-8.94q3.54-3.84,8.52-3.84t8.64,3.84q3.48,3.78,3.48,8.94l0,3.12z"/></svg>
